 http://img808.imageshack.us/img808/2483/playinghouse2010562x722.jpg

Country.......: USA
Genre.........: Thriller
Date release..: 2010 [World]
Director......: Tom Vaughan
Writers.......: Tom Vaughan, Kristy Dobkin
Duration......: 84 min.
More..........: http://www.imdb.com/title/tt1529564
Trailer.......: http://www.imdb.com/video/wab/vi283052313
Trailer.......:

Pilot :
In this taut thriller, newlyweds Jen and Mitch find that three's company and four's a crowd when they ask their friend Danny to move in with them to share expenses. But a sweet situation turns sour when Danny invites a new person into the mix.

Cats :
Shelley Calene Black   	 ...  	Sharon
Alex Dorman 	... 	Tiffany
Mari E. Ferguson 	... 	Widow
Caleb George 	... 	Eric
Mayra Leal 	... 	Blair
Matt Lusk 	... 	Danny Hockman
Kevin Parker 	... 	Steve
Sarah Prikryl 	... 	Jen McKenzie
Celeste Roberts 	... 	Dr. Nicole Hardy
Craig Welzbacher 	... 	Mitch McKenzie 

Data Technical :
!!! SAMPLE !!!
Audio.....: English
Subtitles.: None
Format                           : AVI
Format/Info                      : Audio Video Interleave
File size                        : 700 MiB
Duration                         : 1h 24mn
Overall bit rate                 : 1 162 Kbps
Writing application              : VirtualDubMod 1.5.4.1 (build 2178/release)
Writing library                  : VirtualDubMod build 2178/release
Video
ID                               : 0
Format                           : MPEG-4 Visual
Format profile                   : Advanced Simple@L5
Format settings, BVOP            : Yes
Format settings, QPel            : No
Format settings, GMC             : No warppoints
Format settings, Matrix          : Custom
Codec ID                         : XVID
Codec ID/Hint                    : XviD
Duration                         : 1h 24mn
Bit rate                         : 1 039 Kbps
Width                            : 640 pixels
Height                           : 368 pixels
Display aspect ratio             : 16:9
Frame rate                       : 23.976 fps
Color space                      : YUV
Chroma subsampling               : 4:2:0
Bit depth                        : 8 bits
Scan type                        : Progressive
Bits/(Pixel*Frame)               : 0.184
Stream size                      : 626 MiB (89%)
Writing library                  : XviD 58
Audio
ID                               : 1
Format                           : MPEG Audio
Format version                   : Version 1
Format profile                   : Layer 3
Mode                             : Joint stereo
Mode extension                   : MS Stereo
Codec ID                         : 55
Codec ID/Hint                    : MP3
Duration                         : 1h 24mn
Bit rate mode                    : Variable
Bit rate                         : 111 Kbps
Nominal bit rate                 : 128 Kbps
Channel(s)                       : 2 channels
Sampling rate                    : 48.0 KHz
Stream size                      : 66.7 MiB (10%)
Alignment                        : Aligned on interleaves
Interleave, duration             : 24 ms (0.58 video frame)
Interleave, preload duration     : 166 ms
Writing library                  : LAME3.98r
Encoding settings                : -m j -V 4 -q 2 -lowpass 17 --abr 128

Screen : 
http://img692.imageshack.us/img692/9621/playinghouse2010s1.jpg 
http://img263.imageshack.us/img263/4321/playinghouse2010s2.jpg 
http://img24.imageshack.us/img24/4479/playinghouse2010s3.jpg 
http://img607.imageshack.us/img607/7254/playinghouse2010s4.jpg 
http://img685.imageshack.us/img685/7460/playinghouse2010s5.jpg